# xmcd
#
# Track frame offsets: 
#        183
#        25510
#        56943
#        77605
#        102648
#        124403
#        143223
#        162083
#        182450
#        205163
#
# Disc length: 3028 seconds
#
# Revision: 0
# Processed by: cddbd v1.5.2PL0 Copyright (c) Steve Scherf et al.
# Submitted via: ExactAudioCopy v1.1
#
DISCID=850bd20a
DTITLE=Thomas and Taylor - You Can't Blame Love - The Anthology Disc 2
DYEAR=1992
DGENRE=R&B
TTITLE0=Freedom (Extended Mix)
TTITLE1=Shake In The Grass (Extended)
TTITLE2=I'll Be Waiting (Extended Mix)
TTITLE3=I Love You
TTITLE4=Lonely (Too Long)
TTITLE5=True Love
TTITLE6=Call Me
TTITLE7=Hey Brother
TTITLE8=Don't Forget (Who You Are)
TTITLE9=You Can't Blame Love (Original Extended Mix)
EXTD=
EXTT0=
EXTT1=
EXTT2=
EXTT3=
EXTT4=
EXTT5=
EXTT6=
EXTT7=
EXTT8=
EXTT9=
PLAYORDER=
